<svg xmlns="http://www.w3.org/2000/svg" version="1.1" xmlns:xlink="http://www.w3.org/1999/xlink" xmlns:svgjs="http://svgjs.com/svgjs" width="1440" height="560" preserveAspectRatio="none" viewBox="0 0 1440 560"><g mask="url(&quot;#SvgjsMask1516&quot;)" fill="none"><rect width="1440" height="560" x="0" y="0" fill="url(#SvgjsLinearGradient1517)"></rect><path d="M1440 0L1196.92 0L1440 16.85z" fill="rgba(255, 255, 255, .1)"></path><path d="M1196.92 0L1440 16.85L1440 118.58000000000001L1007.96 0z" fill="rgba(255, 255, 255, .075)"></path><path d="M1007.96 0L1440 118.58000000000001L1440 275.57000000000005L946.34 0z" fill="rgba(255, 255, 255, .05)"></path><path d="M946.3399999999999 0L1440 275.57000000000005L1440 359.20000000000005L602.5899999999999 0z" fill="rgba(255, 255, 255, .025)"></path><path d="M0 560L91.69 560L0 339.40999999999997z" fill="rgba(0, 0, 0, .1)"></path><path d="M0 339.40999999999997L91.69 560L677.4000000000001 560L0 188.55999999999997z" fill="rgba(0, 0, 0, .075)"></path><path d="M0 188.56L677.4000000000001 560L1100.63 560L0 167.12z" fill="rgba(0, 0, 0, .05)"></path><path d="M0 167.12L1100.63 560L1283.17 560L0 69.48z" fill="rgba(0, 0, 0, .025)"></path></g><defs><mask id="SvgjsMask1516"><rect width="1440" height="560" fill="#ffffff"></rect></mask><linearGradient x1="84.72%" y1="-39.29%" x2="15.28%" y2="139.29%" gradientUnits="userSpaceOnUse" id="SvgjsLinearGradient1517"><stop stop-color="rgba(4, 124, 0, 1)" offset="0"></stop><stop stop-color="rgba(0, 0, 0, 1)" offset="1"></stop></linearGradient></defs></svg>